<?xml version="1.0" encoding="UTF-8" standalone="no"?>
<!DOCTYPE svg PUBLIC "-//W3C//DTD SVG 1.1//EN" "http://www.w3.org/Graphics/SVG/1.1/DTD/svg11.dtd">
<svg version="1.1" xmlns="http://www.w3.org/2000/svg" xmlns:xlink="http://www.w3.org/1999/xlink" preserveAspectRatio="xMidYMid meet" viewBox="0 0 640 640" width="640" height="640"><defs><path d="M90.28 396.24C90.28 396.24 90.28 396.24 90.28 396.24C101.05 428.55 136.19 446.12 168.5 435.35C202.57 424.02 475.11 333.32 509.18 321.98C541.49 311.21 559.06 276.07 548.29 243.76C548.29 243.76 548.29 243.76 548.29 243.76C537.52 211.45 502.38 193.88 470.06 204.65C401.93 227.32 163.46 306.68 129.39 318.02C97.08 328.79 79.51 363.93 90.28 396.24Z" id="a5H13yxjo"></path><path d="M90.28 396.24C90.28 396.24 90.28 396.24 90.28 396.24C101.05 428.55 136.19 446.12 168.5 435.35C202.57 424.02 475.11 333.32 509.18 321.98C541.49 311.21 559.06 276.07 548.29 243.76C548.29 243.76 548.29 243.76 548.29 243.76C537.52 211.45 502.38 193.88 470.06 204.65C401.93 227.32 163.46 306.68 129.39 318.02C97.08 328.79 79.51 363.93 90.28 396.24Z" id="c2QqrGvqOL"></path><path d="M90.28 199.54C90.28 199.54 90.28 199.54 90.28 199.54C101.05 231.86 136.19 249.43 168.5 238.66C202.57 227.32 475.11 136.62 509.18 125.29C541.49 114.52 559.06 79.37 548.29 47.06C548.29 47.06 548.29 47.06 548.29 47.06C537.52 14.75 502.38 -2.82 470.06 7.95C401.93 30.62 163.46 109.98 129.39 121.32C97.08 132.09 79.51 167.23 90.28 199.54Z" id="f3OqE6do1o"></path><path d="M90.28 199.54C90.28 199.54 90.28 199.54 90.28 199.54C101.05 231.86 136.19 249.43 168.5 238.66C202.57 227.32 475.11 136.62 509.18 125.29C541.49 114.52 559.06 79.37 548.29 47.06C548.29 47.06 548.29 47.06 548.29 47.06C537.52 14.75 502.38 -2.82 470.06 7.95C401.93 30.62 163.46 109.98 129.39 121.32C97.08 132.09 79.51 167.23 90.28 199.54Z" id="a3ZI3Qxsc"></path><path d="M89.71 592.94C89.71 592.94 89.71 592.94 89.71 592.94C100.48 625.25 135.62 642.82 167.94 632.05C202 620.71 474.54 530.02 508.61 518.68C540.92 507.91 558.49 472.77 547.72 440.46C547.72 440.46 547.72 440.46 547.72 440.46C537.52 408.14 502.38 390.57 470.06 401.34C401.82 424.02 162.95 503.38 128.82 514.71C96.51 525.48 78.94 560.63 89.71 592.94Z" id="hz6bFitL3"></path><path d="M89.71 592.94C89.71 592.94 89.71 592.94 89.71 592.94C100.48 625.25 135.62 642.82 167.94 632.05C202 620.71 474.54 530.02 508.61 518.68C540.92 507.91 558.49 472.77 547.72 440.46C547.72 440.46 547.72 440.46 547.72 440.46C537.52 408.14 502.38 390.57 470.06 401.34C401.82 424.02 162.95 503.38 128.82 514.71C96.51 525.48 78.94 560.63 89.71 592.94Z" id="d8vgMXe60"></path></defs><g><g><g><use xlink:href="#a5H13yxjo" opacity="1" fill="#ffffff" fill-opacity="1"></use><g><use xlink:href="#a5H13yxjo" opacity="1" fill-opacity="0" stroke="#000000" stroke-width="1" stroke-opacity="0"></use></g></g><g><use xlink:href="#c2QqrGvqOL" opacity="1" fill="#ffffff" fill-opacity="1"></use><g><use xlink:href="#c2QqrGvqOL" opacity="1" fill-opacity="0" stroke="#000000" stroke-width="1" stroke-opacity="0"></use></g></g><g><use xlink:href="#f3OqE6do1o" opacity="1" fill="#ffffff" fill-opacity="1"></use><g><use xlink:href="#f3OqE6do1o" opacity="1" fill-opacity="0" stroke="#000000" stroke-width="1" stroke-opacity="0"></use></g></g><g><use xlink:href="#a3ZI3Qxsc" opacity="1" fill="#ffffff" fill-opacity="1"></use><g><use xlink:href="#a3ZI3Qxsc" opacity="1" fill-opacity="0" stroke="#000000" stroke-width="1" stroke-opacity="0"></use></g></g><g><use xlink:href="#hz6bFitL3" opacity="1" fill="#ffffff" fill-opacity="1"></use><g><use xlink:href="#hz6bFitL3" opacity="1" fill-opacity="0" stroke="#000000" stroke-width="1" stroke-opacity="0"></use></g></g><g><use xlink:href="#d8vgMXe60" opacity="1" fill="#ffffff" fill-opacity="1"></use><g><use xlink:href="#d8vgMXe60" opacity="1" fill-opacity="0" stroke="#000000" stroke-width="1" stroke-opacity="0"></use></g></g></g></g></svg>