<?xml version="1.0" encoding="UTF-8" standalone="no"?>
<!DOCTYPE svg PUBLIC "-//W3C//DTD SVG 1.1//EN" "http://www.w3.org/Graphics/SVG/1.1/DTD/svg11.dtd">
<svg version="1.1" xmlns="http://www.w3.org/2000/svg" xmlns:xlink="http://www.w3.org/1999/xlink" preserveAspectRatio="xMidYMid meet" viewBox="0 0 640 640" width="640" height="640"><defs><path d="M130.39 318.02C98.08 328.79 80.51 363.93 91.28 396.24C91.28 396.24 91.28 396.24 91.28 396.24C102.05 428.55 137.19 446.12 169.5 435.35C203.57 424.02 476.11 333.32 510.18 321.98C542.49 311.21 560.06 276.07 549.29 243.76C549.29 243.76 549.29 243.76 549.29 243.76C538.52 211.45 503.38 193.88 471.06 204.65C402.93 227.32 164.46 306.68 130.39 318.02Z" id="dwt6L9lIk"></path><path d="M130.39 121.32C98.08 132.09 80.51 167.23 91.28 199.54C91.28 199.54 91.28 199.54 91.28 199.54C102.05 231.86 137.19 249.43 169.5 238.66C203.57 227.32 476.11 136.62 510.18 125.29C542.49 114.52 560.06 79.37 549.29 47.06C549.29 47.06 549.29 47.06 549.29 47.06C538.52 14.75 503.38 -2.82 471.06 7.95C402.93 30.62 164.46 109.98 130.39 121.32Z" id="c40ZRjtte"></path><path d="M129.82 514.71C97.51 525.48 79.94 560.63 90.71 592.94C90.71 592.94 90.71 592.94 90.71 592.94C101.48 625.25 136.62 642.82 168.94 632.05C203 620.71 475.54 530.02 509.61 518.68C541.92 507.91 559.49 472.77 548.72 440.46C548.72 440.46 548.72 440.46 548.72 440.46C538.52 408.14 503.38 390.57 471.06 401.34C402.82 424.02 163.95 503.38 129.82 514.71Z" id="aoQlDPiR2"></path></defs><g><g><g><use xlink:href="#dwt6L9lIk" opacity="1" fill="#000000" fill-opacity="1"></use><g><use xlink:href="#dwt6L9lIk" opacity="1" fill-opacity="0" stroke="#000000" stroke-width="1" stroke-opacity="0"></use></g></g><g><use xlink:href="#c40ZRjtte" opacity="1" fill="#000000" fill-opacity="1"></use><g><use xlink:href="#c40ZRjtte" opacity="1" fill-opacity="0" stroke="#000000" stroke-width="1" stroke-opacity="0"></use></g></g><g><use xlink:href="#aoQlDPiR2" opacity="1" fill="#000000" fill-opacity="1"></use><g><use xlink:href="#aoQlDPiR2" opacity="1" fill-opacity="0" stroke="#000000" stroke-width="1" stroke-opacity="0"></use></g></g></g></g></svg>